<svg xmlns="http://www.w3.org/2000/svg" viewBox="0 0 1200 630">
  <defs>
    <linearGradient id="bg" x1="0%" y1="0%" x2="100%" y2="100%">
      <stop offset="0%" stop-color="#f4f8ff"/>
      <stop offset="100%" stop-color="#dfeeff"/>
    </linearGradient>
    <linearGradient id="brand" x1="0%" y1="0%" x2="100%" y2="100%">
      <stop offset="0%" stop-color="#246bce"/>
      <stop offset="100%" stop-color="#4da1ff"/>
    </linearGradient>
  </defs>
  <rect width="1200" height="630" fill="url(#bg)"/>
  <circle cx="1080" cy="120" r="180" fill="#ffd37a" opacity="0.22"/>
  <circle cx="160" cy="520" r="160" fill="#4da1ff" opacity="0.14"/>
  <rect x="72" y="72" width="1056" height="486" rx="36" fill="#ffffff" opacity="0.94"/>
  <rect x="116" y="116" width="84" height="84" rx="20" fill="url(#brand)"/>
  <text x="158" y="173" text-anchor="middle" font-size="46" font-family="Segoe UI, Arial, sans-serif" font-weight="700" fill="#ffffff">M</text>
  <text x="240" y="172" font-size="62" font-family="Segoe UI, Arial, sans-serif" font-weight="700" fill="#10233d">MatrixVis</text>
  <text x="118" y="256" font-size="34" font-family="Segoe UI, Arial, sans-serif" fill="#34506d">公网可访问的矩阵可视化网站</text>
  <text x="118" y="322" font-size="28" font-family="Segoe UI, Arial, sans-serif" fill="#5f728f">输入矩阵、拖动探针点、观察图形、同步阅读结果解释</text>
  <rect x="118" y="380" width="248" height="132" rx="26" fill="#f4f8ff" stroke="#d8e6f8"/>
  <rect x="392" y="380" width="338" height="132" rx="26" fill="#f4f8ff" stroke="#d8e6f8"/>
  <rect x="756" y="380" width="248" height="132" rx="26" fill="#f4f8ff" stroke="#d8e6f8"/>
  <text x="148" y="426" font-size="20" font-family="Segoe UI, Arial, sans-serif" fill="#5f728f">代数输入</text>
  <text x="148" y="468" font-size="34" font-family="Segoe UI, Arial, sans-serif" font-weight="700" fill="#10233d">Matrix A</text>
  <text x="422" y="426" font-size="20" font-family="Segoe UI, Arial, sans-serif" fill="#5f728f">图形联动</text>
  <text x="422" y="468" font-size="34" font-family="Segoe UI, Arial, sans-serif" font-weight="700" fill="#10233d">GeoGebra 风格工作台</text>
  <text x="786" y="426" font-size="20" font-family="Segoe UI, Arial, sans-serif" fill="#5f728f">结果解释</text>
  <text x="786" y="468" font-size="34" font-family="Segoe UI, Arial, sans-serif" font-weight="700" fill="#10233d">Explainable Math</text>
</svg>
